<svg height="512pt" viewBox="-65 0 512 512" width="512pt" xmlns="http://www.w3.org/2000/svg"><path d="m351 482v-50l-45-60h33.253906l-50.445312-255.308594c-8.789063-49.636718-51.316406-85.785156-101.554688-86.652344l-30.039062-30.039062h-31.214844v37.753906l-126 100v82.246094h101.695312l-40.175781 152h34.480469l-45 60v50h-30v30h360v-30zm-250.519531-140 40.175781-152h-110.65625v-37.753906l116.230469-92.246094h39.183593c36.496094 0 67.566407 26.09375 73.871094 62.039062l43.460938 219.960938zm168.019531 30 37.5 50h-210l37.5-50zm-187.5 110v-30h240v30zm0 0"/></svg>