<svg id="Capa_1" enable-background="new 0 0 512 512" height="512" viewBox="0 0 512 512" width="512" xmlns="http://www.w3.org/2000/svg"><g><path d="m512 35.184h-512v372.233h274.182c20.703 41.12 63.308 69.398 112.4 69.398 33.582 0 65.111-13.089 88.778-36.856 23.627-23.729 36.64-55.302 36.64-88.902 0-.198 0-315.873 0-315.873zm-256.163 193.962-199.073-163.982h398.426zm-59.939-10.532-165.918 141.351v-278.022zm-140.198 158.823 163.701-139.462 36.422 30.002 36.454-29.985 16.667 14.199c-29.283 23.046-48.121 58.797-48.121 98.867 0 9.047.969 17.871 2.793 26.381h-207.916zm330.882 69.399c-52.813 0-95.779-42.966-95.779-95.779s42.967-95.779 95.779-95.779c52.625 0 95.438 42.966 95.438 95.779s-42.813 95.779-95.438 95.779zm88.777-184.682c-23.667-23.767-55.196-36.856-88.778-36.856-17.962 0-35.052 3.793-50.523 10.608l-20.262-17.262 166.224-136.729v187.47c-2.117-2.482-4.336-4.896-6.661-7.231z"/><path d="m401.572 297.124h-29.98v38.943h-38.943v29.98h38.943v38.942h29.98v-38.942h38.941v-29.98h-38.941z"/></g></svg>